# Instant Launcher mark: a grass block cut into three instance slabs.
# Units: metres, Z up (import with Y forward / Z up). Slab 30 cm, gap 30 cm.
mtllib instant-launcher.mtl
v 0.0000 0.0000 0.3000
v 1.5000 0.0000 0.3000
v 1.5000 1.5000 0.3000
v 0.0000 1.5000 0.3000
v 0.0000 1.5000 0.0000
v 1.5000 1.5000 0.0000
v 1.5000 0.0000 0.0000
v 0.0000 0.0000 0.0000
v 0.0000 0.0000 0.9000
v 1.5000 0.0000 0.9000
v 1.5000 1.5000 0.9000
v 0.0000 1.5000 0.9000
v 0.0000 1.5000 0.6000
v 1.5000 1.5000 0.6000
v 1.5000 0.0000 0.6000
v 0.0000 0.0000 0.6000
v 0.0000 0.0000 1.4250
v 1.5000 0.0000 1.4250
v 1.5000 1.5000 1.4250
v 0.0000 1.5000 1.4250
v 0.0000 1.5000 1.2000
v 1.5000 1.5000 1.2000
v 1.5000 0.0000 1.2000
v 0.0000 0.0000 1.2000
v 0.0000 0.0000 1.5000
v 1.5000 0.0000 1.5000
v 1.5000 1.5000 1.5000
v 0.0000 1.5000 1.5000

o slab_bottom
usemtl dirt_low
f 1 2 3 4
f 5 6 7 8
f 8 7 2 1
f 7 6 3 2
f 6 5 4 3
f 5 8 1 4

o slab_middle
usemtl dirt_mid
f 9 10 11 12
f 13 14 15 16
f 16 15 10 9
f 15 14 11 10
f 14 13 12 11
f 13 16 9 12

o slab_top
usemtl dirt
f 17 18 19 20
f 21 22 23 24
f 24 23 18 17
f 23 22 19 18
f 22 21 20 19
f 21 24 17 20

o grass_cap
usemtl grass
f 25 26 27 28
f 20 19 18 17
f 17 18 26 25
f 18 19 27 26
f 19 20 28 27
f 20 17 25 28
